<svg height="1000" viewBox="0 0 1440 1000" width="1440" xmlns="http://www.w3.org/2000/svg"><g fill="#4733d0" fill-rule="evenodd" opacity=".5" transform="translate(-56 -10)"><path d="m127 111v58h64v-37.18h-17.86v-20.82zm437.36 870 7.549 40.914-35.179 24.176-7.046-42.1zm685.652-510 26.606 40.266-26.606 41.758-26.606-41.758z"/><path d="m787 48.5a8.5 8.5 0 1 0 0 17 8.5 8.5 0 0 0 0-17zm0-15c12.979 0 23.5 10.521 23.5 23.5s-10.521 23.5-23.5 23.5-23.5-10.521-23.5-23.5 10.521-23.5 23.5-23.5z" fill-rule="nonzero"/><path d="m1313.915 0-13.878 8.955 10.311 15.88h-19.348v16.483h18.037l-10.492 14.987 13.556 9.434 12.868-18.382 12.104 18.643 13.877-8.955-10.211-15.727h18.261v-16.483h-18.265l10.37-14.814-13.557-9.431-12.063 17.232z"/><path d="m1472 317.5c-5.799 0-10.5 4.701-10.5 10.5v22c0 5.799 4.701 10.5 10.5 10.5h22c5.799 0 10.5-4.701 10.5-10.5v-22c0-5.799-4.701-10.5-10.5-10.5zm0-15h22c14.083 0 25.5 11.417 25.5 25.5v22c0 14.083-11.417 25.5-25.5 25.5h-22c-14.083 0-25.5-11.417-25.5-25.5v-22c0-14.083 11.417-25.5 25.5-25.5zm-1441 15c-5.799 0-10.5 4.701-10.5 10.5v22c0 5.799 4.701 10.5 10.5 10.5h22c5.799 0 10.5-4.701 10.5-10.5v-22c0-5.799-4.701-10.5-10.5-10.5zm0-15h22c14.083 0 25.5 11.417 25.5 25.5v22c0 14.083-11.417 25.5-25.5 25.5h-22c-14.083 0-25.5-11.417-25.5-25.5v-22c0-14.083 11.417-25.5 25.5-25.5z" fill-rule="nonzero"/><rect height="80" rx="40" width="80" x="426" y="60"/><path d="m567.5 649-29.5 47.09h14.526l-11.846 18.91h53.638l-11.846-18.91h14.528zm951.105 105-22.95 22.918-24.652-22.826-31.003 29.447 13.775 13.839 17.402-16.529 25 23.151 23.09-23.058 18.286 16.589 13.448-14.143zm-1440 0-22.95 22.918-24.652-22.826-31.003 29.447 13.775 13.839 17.402-16.529 25 23.151 23.09-23.058 18.286 16.589 13.448-14.143zm272.13-306.939a61.176 61.176 0 0 1 -.246-.247l-1.728-1.748c-4.28-4.329-4.239-11.311.094-15.595 4.317-4.27 11.267-4.248 15.551.036l.044.045 1.729 1.747.156.158c7.462 7.462 17.375 11.424 27.94 11.162 10.639-.263 20.412-4.773 27.52-12.699 4.069-4.536 11.041-4.918 15.574-.854 4.532 4.066 4.909 11.037.84 15.573-5.654 6.305-12.404 11.254-20.062 14.711a60.052 60.052 0 0 1 -23.343 5.318 59.994 59.994 0 0 1 -23.571-4.154c-7.706-3.03-14.601-7.557-20.498-13.453m708.83-238.338c-4.06-4.215-6.565-9.986-6.565-16.35 0-12.909 10.298-23.373 23-23.373s23 10.464 23 23.373c0 6.364-2.504 12.135-6.565 16.35a20.588 20.588 0 0 1 3.698 11.818c0 11.3-9.015 20.459-20.133 20.459-11.119 0-20.133-9.16-20.133-20.459 0-4.403 1.37-8.481 3.698-11.818m157.701 689.915c-.013.01-.023.022-.036.032l-.001-.001-27.229 22.846-9.515 7.985-.001.019-1.843 21.11 21.108 1.849.01.011.01-.008 9.515-7.984 27.227-22.847-.001-.001.038-.03c6.343-5.322 7.169-14.783 1.844-21.128-5.325-6.347-14.784-7.176-21.127-1.853m-431.495-561c.012.01.022.022.035.032l.002-.001 27.227 22.846 9.515 7.985.001.019 1.843 21.11-21.108 1.849-.01.011-.01-.008-9.515-7.984-27.227-22.847.001-.001-.038-.03c-6.343-5.322-7.169-14.783-1.844-21.128 5.325-6.347 14.784-7.176 21.127-1.853"/><path d="m1018 656.953-21.5 12.5v25.09l21.5 12.503 21.5-12.503v-25.09zm36.5 10.888v28.314c0 4.344-2.305 8.366-6.054 10.537l-24.356 14.165a12.106 12.106 0 0 1 -12.178.001l-24.347-14.158a12.18 12.18 0 0 1 -6.065-10.544v-28.314c0-4.338 2.302-8.355 6.055-10.537l24.355-14.16a12.106 12.106 0 0 1 12.177-.002l24.358 14.162a12.188 12.188 0 0 1 6.055 10.537zm-769 54.659v38h38v-38zm-3.5-15h45c6.351 0 11.5 5.149 11.5 11.5v45c0 6.351-5.149 11.5-11.5 11.5h-45c-6.351 0-11.5-5.149-11.5-11.5v-45c0-6.351 5.149-11.5 11.5-11.5z" fill-rule="nonzero"/></g></svg>